<?xml version="1.0" encoding="utf-8"?>
<!DOCTYPE svg PUBLIC "-//W3C//DTD SVG 1.1//EN" "http://www.w3.org/Graphics/SVG/1.1/DTD/svg11.dtd">
<svg version="1.1" id="图形" xmlns="http://www.w3.org/2000/svg" xmlns:xlink="http://www.w3.org/1999/xlink" x="0px" y="0px" width="1024px" height="1024px" viewBox="0 0 1024 1024" enable-background="new 0 0 1024 1024" xml:space="preserve">
  <path fill="#272636" d="M275.2 812c38.4 0 70.4-6.4 83.2-12.8 32-6.4 51.2-12.8 89.6-294.4l6.4-25.6L352 402.4c38.4-134.4 172.8-236.8 230.4-275.2l89.6 76.8 25.6-6.4c0 0 128-44.8 192-57.6 38.4-6.4 64-25.6 83.2-51.2 19.2-32 19.2-70.4 6.4-121.6-32-108.8-128-172.8-249.6-172.8-44.8 0-96 6.4-147.2 25.6C256-64.8 38.4 364 32 524 44.8 786.4 204.8 812 275.2 812zM352 754.4c-19.2 0-256 83.2-275.2-230.4 6.4-147.2 217.6-556.8 518.4-665.6 166.4-64 300.8-6.4 339.2 115.2 19.2 70.4-6.4 102.4-57.6 115.2-70.4 12.8-204.8 57.6-204.8 57.6l-96-83.2c0 0-243.2 140.8-288 352l108.8 76.8C403.2 498.4 371.2 748 352 754.4z" transform="translate(0, 812) scale(1, -1)"/>
</svg>
