<?xml version="1.0" encoding="utf-8"?>
<!DOCTYPE svg PUBLIC "-//W3C//DTD SVG 1.1//EN" "http://www.w3.org/Graphics/SVG/1.1/DTD/svg11.dtd">
<svg version="1.1" id="图形" xmlns="http://www.w3.org/2000/svg" xmlns:xlink="http://www.w3.org/1999/xlink" x="0px" y="0px" width="1024px" height="1024px" viewBox="0 0 1024 1024" enable-background="new 0 0 1024 1024" xml:space="preserve">
  <path fill="#272636" d="M511.999488 300.021489M782.089903 395.049796c-9.526981 0-17.250896-7.723915-17.250896-17.250896l0-99.117438c0-9.526981 7.723915-17.250896 17.250896-17.250896s17.250896 7.723915 17.250896 17.250896l0 99.117438C799.340799 387.325881 791.616884 395.049796 782.089903 395.049796zM782.089903 178.30945c-9.526981 0-17.250896-7.723915-17.250896-17.250896l0-99.117438c0-9.526981 7.723915-17.250896 17.250896-17.250896s17.250896 7.723915 17.250896 17.250896l0 99.117438C799.340799 170.585535 791.616884 178.30945 782.089903 178.30945zM328.284303 559.471566 213.886857 559.471566c-9.526981 0-17.250896-7.723915-17.250896-17.250896s7.723915-17.250896 17.250896-17.250896l114.397447 0c9.526981 0 17.250896 7.723915 17.250896 17.250896S337.811284 559.471566 328.284303 559.471566zM328.284303 353.970192 213.886857 353.970192c-9.526981 0-17.250896-7.723915-17.250896-17.250896 0-9.526981 7.723915-17.250896 17.250896-17.250896l114.397447 0c9.526981 0 17.250896 7.723915 17.250896 17.250896C345.535199 346.246277 337.811284 353.970192 328.284303 353.970192zM328.284303 148.467795 213.886857 148.467795c-9.526981 0-17.250896-7.723915-17.250896-17.250896s7.723915-17.250896 17.250896-17.250896l114.397447 0c9.526981 0 17.250896 7.723915 17.250896 17.250896S337.811284 148.467795 328.284303 148.467795zM538.743596 559.471566 424.346149 559.471566c-9.526981 0-17.250896-7.723915-17.250896-17.250896s7.723915-17.250896 17.250896-17.250896L538.743596 524.969774c9.526981 0 17.250896 7.723915 17.250896 17.250896S548.270577 559.471566 538.743596 559.471566zM538.743596 353.970192 424.346149 353.970192c-9.526981 0-17.250896-7.723915-17.250896-17.250896 0-9.526981 7.723915-17.250896 17.250896-17.250896L538.743596 319.4684c9.526981 0 17.250896 7.723915 17.250896 17.250896C555.994492 346.246277 548.270577 353.970192 538.743596 353.970192zM538.743596 148.467795 424.346149 148.467795c-9.526981 0-17.250896-7.723915-17.250896-17.250896s7.723915-17.250896 17.250896-17.250896L538.743596 113.966003c9.526981 0 17.250896 7.723915 17.250896 17.250896S548.270577 148.467795 538.743596 148.467795zM1006.525512-105.338748l-60.561307 0 0 642.984217L669.615249 537.645468 669.615249 739.84054 79.584058 739.84054l0-845.179288L17.473465-105.338748c-9.528004 0-17.250896-7.723915-17.250896-17.250896s7.722892-17.250896 17.250896-17.250896l62.110593 0 555.529399 0 34.501792 0 276.348955 0 60.561307 0c9.526981 0 17.250896 7.723915 17.250896 17.250896S1016.052492-105.338748 1006.525512-105.338748zM114.08585-105.338748 114.08585 705.338748l521.027607 0 0-167.694303 0-642.984217L114.08585-105.339772zM669.615249-105.338748 669.615249 503.143677 911.462412 503.143677l0-608.482425L669.615249-105.338748z" transform="translate(0, 812) scale(1, -1)"/>
</svg>
