<?xml version="1.0" encoding="utf-8"?>
<!DOCTYPE svg PUBLIC "-//W3C//DTD SVG 1.1//EN" "http://www.w3.org/Graphics/SVG/1.1/DTD/svg11.dtd">
<svg version="1.1" id="图形" xmlns="http://www.w3.org/2000/svg" xmlns:xlink="http://www.w3.org/1999/xlink" x="0px" y="0px" width="1024px" height="1024px" viewBox="0 0 1024 1024" enable-background="new 0 0 1024 1024" xml:space="preserve">
  <path fill="#272636" d="M991.895452 469.750441 818.092676 743.636475c-6.290544 9.910944-16.829757 15.863793-28.083626 15.863793L233.84959 759.500268c-11.261723 0-21.777376-5.952849-28.083626-15.863793L31.978894 469.750441c-8.159644-12.808835-7.664882-29.709272 1.217271-41.968372l451.851093-625.708843c6.424051-8.866447 16.350702-14.073226 26.889915-14.073226 10.523506 0 20.473717 5.20678 26.889915 14.073226l451.851093 625.708843C999.544628 440.041169 1000.023683 456.933753 991.895452 469.750441L991.895452 469.750441 991.895452 469.750441zM646.449574 428.08835l-134.520255-522.335026L377.401212 428.08835 646.449574 428.08835 646.449574 428.08835 646.449574 428.08835zM387.429956 471.234727 511.937173 682.812179l124.49151-211.577452L387.429956 471.234727 387.429956 471.234727 387.429956 471.234727zM557.054743 687.587024l195.281724 0L670.221704 495.211044 557.054743 687.587024 557.054743 687.587024 557.054743 687.587024zM353.629082 495.211044 271.522172 687.587024l195.297431 0L353.629082 495.211044 353.629082 495.211044 353.629082 495.211044zM455.542173-38.833346 118.318767 428.072644 335.260066 428.072644 455.542173-38.833346 455.542173-38.833346 455.542173-38.833346zM688.582867 428.08835l216.949153 0L568.340026-38.833346 688.582867 428.08835 688.582867 428.08835 688.582867 428.08835zM909.278073 471.234727 704.611581 471.234727l82.303244 192.815768L909.278073 471.234727 909.278073 471.234727 909.278073 471.234727zM236.943815 664.042641 319.239205 471.226873 114.580566 471.226873 236.943815 664.042641 236.943815 664.042641 236.943815 664.042641z" transform="translate(0, 812) scale(1, -1)"/>
</svg>
