<?xml version="1.0" encoding="utf-8"?>
<!DOCTYPE svg PUBLIC "-//W3C//DTD SVG 1.1//EN" "http://www.w3.org/Graphics/SVG/1.1/DTD/svg11.dtd">
<svg version="1.1" id="图形" xmlns="http://www.w3.org/2000/svg" xmlns:xlink="http://www.w3.org/1999/xlink" x="0px" y="0px" width="1024px" height="1024px" viewBox="0 0 1024 1024" enable-background="new 0 0 1024 1024" xml:space="preserve">
  <path fill="#272636" d="M339.2 223.2c-83.2 0-150.4 67.2-150.4 150.4 0 83.2 67.2 150.4 150.4 150.4 83.2 0 150.4-67.2 150.4-150.4C489.6 290.4 422.4 223.2 339.2 223.2zM339.2 488.8c-64 0-118.4-51.2-118.4-118.4 0-64 51.2-118.4 118.4-118.4 64 0 118.4 51.2 118.4 118.4C457.6 437.6 406.4 488.8 339.2 488.8zM531.2-16.8c-9.6 0-16 6.4-16 16 0 92.8-73.6 166.4-166.4 166.4-92.8 0-166.4-73.6-166.4-166.4 0-9.6-6.4-16-16-16s-16 6.4-16 16c0 108.8 89.6 198.4 198.4 198.4 108.8 0 198.4-89.6 198.4-198.4C547.2-10.4 537.6-16.8 531.2-16.8zM905.6-90.4c-9.6 0-16 6.4-16 16s6.4 16 16 16c44.8 0 83.2 35.2 83.2 83.2L988.8 559.2c0 44.8-35.2 83.2-83.2 83.2L121.6 642.4c-44.8 0-83.2-35.2-83.2-83.2l0-537.6c0-44.8 35.2-83.2 83.2-83.2l457.6 0c9.6 0 16-6.4 16-16s-6.4-16-16-16L121.6-93.6c-64 0-115.2 51.2-115.2 115.2L6.4 559.2c0 64 51.2 115.2 115.2 115.2l784 0c64 0 115.2-51.2 115.2-115.2l0-537.6C1020.8-39.2 969.6-90.4 905.6-90.4zM800 408.8l-153.6 0c-9.6 0-16 6.4-16 16s6.4 16 16 16L800 440.8c9.6 0 16-6.4 16-16S809.6 408.8 800 408.8zM889.6 223.2l-243.2 0c-9.6 0-16 6.4-16 16s6.4 16 16 16l243.2 0c9.6 0 16-6.4 16-16S896 223.2 889.6 223.2zM889.6 111.2l-243.2 0c-9.6 0-16 6.4-16 16s6.4 16 16 16l243.2 0c9.6 0 16-6.4 16-16S896 111.2 889.6 111.2z" transform="translate(0, 812) scale(1, -1)"/>
</svg>
