<?xml version="1.0" standalone="no"?>
<!DOCTYPE svg PUBLIC "-//W3C//DTD SVG 1.1//EN" "http://www.w3.org/Graphics/SVG/1.1/DTD/svg11.dtd">
<svg xmlns="http://www.w3.org/2000/svg">
<metadata>Generated by Fontastic.me</metadata>
<defs>
<font id="xdfont" horiz-adv-x="512">
<font-face font-family="xdfont" units-per-em="512" ascent="480" descent="-32"/>
<missing-glyph horiz-adv-x="512" />

<glyph unicode="&#97;" d="M501 79l-88 88c22 35 35 77 35 121 0 124-100 224-224 224-124 0-224-100-224-224 0-124 100-224 224-224 44 0 86 13 121 35l88-88c6-6 16-6 22 0l46 46c6 6 6 16 0 22m-277 49c-88 0-160 72-160 160 0 88 72 160 160 160 88 0 160-72 160-160 0-88-72-160-160-160"/>
<glyph unicode="&#99;" d="M256 37c-5 0-9 1-13 5l-178 172c-2 1-4 4-8 7-3 4-8 10-16 19-7 9-13 18-19 28-6 9-11 21-15 34-5 14-7 27-7 40 0 42 12 74 36 98 24 24 58 35 101 35 11 0 23-2 36-6 12-4 23-9 34-16 11-7 20-14 27-20 8-6 15-12 22-19 7 7 14 13 22 19 7 6 16 13 27 20 11 7 22 12 34 16 13 4 25 6 36 6 43 0 77-11 101-35 24-24 36-56 36-98 0-42-22-85-65-129l-178-171c-4-4-8-5-13-5z"/>
<glyph unicode="&#101;" d="M231 52c-25 27-152 163-152 251 0 98 80 177 177 177 97 0 177-79 177-177 0-88-126-223-152-251-25-27-25-27-50 0z m25 396c-80 0-145-65-145-145 0-75 90-171 143-229l2-2 2 2c53 58 143 154 143 229 0 80-65 145-145 145z m0-232c-48 0-87 38-87 86 0 48 39 87 87 87 48 0 87-39 87-87 0-48-39-86-87-86z m0 141c-30 0-55-25-55-55 0-30 25-54 55-54 30 0 55 24 55 54 0 30-25 55-55 55z"/>
<glyph unicode="&#105;" d="M272 32c-115 0-208 93-208 208 0 115 93 208 208 208 115 0 208-93 208-208 0-115-93-208-208-208z m0 384c-97 0-176-79-176-176 0-97 79-176 176-176 97 0 176 79 176 176 0 97-79 176-176 176z m0-320c-9 0-16 7-16 16l0 160c0 9 7 16 16 16 9 0 16-7 16-16l0-160c0-9-7-16-16-16z m64 128l-128 0c-9 0-16 7-16 16 0 9 7 16 16 16l128 0c9 0 16-7 16-16 0-9-7-16-16-16z m-64 32c-4 0-8 2-11 5-7 6-7 16 0 22l64 64c6 7 16 7 22 0 6-6 6-16 0-22l-64-64c-3-3-7-5-11-5z m0 0c-4 0-8 2-11 5l-64 64c-7 6-7 16 0 22 6 7 16 7 22 0l64-64c7-6 7-16 0-22-3-3-7-5-11-5z m64-96l-128 0c-9 0-16 7-16 16 0 9 7 16 16 16l128 0c9 0 16-7 16-16 0-9-7-16-16-16z"/>
<glyph unicode="&#106;" d="M272 436c8 0 16-1 23-2 2-8 6-15 12-21 8-8 15-19 20-30 5-13 7-26 7-40 0-27-10-52-28-70 0 0 0 0 0 0 0 0 0 0 0 0 0 0 0 0 0 0-4-4-6-7-8-11-7-14-12-33-7-52 4-16 16-43 58-57 0 0 0 0 0 0 0 0 0 0 0 0 9-3 33-12 54-25 17-12 23-20 24-23l0-27-343 0 0 27c1 1 2 4 6 8 5 6 13 11 22 17 19 12 42 20 57 25 1 0 2 0 3 1 27 10 45 30 51 54 5 21 0 44-14 60 0 1-1 2-3 3-17 18-27 43-27 70 0 25 8 48 23 66 14 16 32 25 51 26 1 0 2 0 4 0 4 1 10 1 15 1m0 45c-7 0-14 0-21-1-65-3-118-63-118-137 0-40 16-77 42-102 0 0 0 0 0 0 10-11 8-33-19-43-40-12-117-46-117-92l0-39c0-19 16-34 35-34l363 0c19 0 35 15 35 34l0 39c0 43-68 76-109 89 0 0 0 0 0 0-43 15-25 46-25 46 0 0 0 0 0 0 25 25 41 62 41 102 0 41-15 77-40 102 2 2 3 5 3 8 0 16-31 28-70 28z"/>
<glyph unicode="&#108;" d="M222 287l-4-32c-1-3 1-6 3-8 2-1 3-1 5-1 1 0 3 0 4 1l28 16 30-14c3-2 6-1 8 1 3 1 4 5 3 8l-6 32 22 23c2 2 3 6 2 9-1 2-4 5-7 5l-32 3-16 29c-1 3-4 5-7 4-3 0-6-2-7-4l-14-30-32-6c-3 0-5-3-6-6-1-3 0-6 2-8z m20 27c2 0 4 2 6 4l8 19 9-18c2-3 4-4 7-4l20-3-14-14c-2-2-3-5-2-8l4-19-18 8c-3 2-6 2-8 0l-17-10 2 20c1 3 0 6-2 7l-15 14z m179 50c-1 4-4 6-8 6l-45 0c0 15 0 26 0 26 0 5-4 9-8 9l-207 0c-4 0-8-4-8-9 0 0 0-11 0-26l-46 0c-4 0-7-2-8-6 0-1-4-20 1-41 6-30 25-51 53-60 1 0 1 0 1 0 6-32 24-58 50-75l0-90c0-4 2-7 5-8 1 0 2 0 3 0 2 0 5 0 6 2l46 46 47-46c2-2 4-2 6-2 1 0 2 0 3 0 3 1 5 4 5 8l0 91c25 16 44 43 49 74 0 0 1 0 1 0 29 9 47 30 53 60 5 21 1 40 1 41z m-276-83c-20 8-32 23-37 44-2 12-2 22-1 29l38 0c0-32 0-70 0-72 0 0 0-1 0-1z m103-128l-35-35 0 62c11-5 22-8 35-9z m53-35l-37 35 0 18c13 1 25 4 37 9z m50 222c0 0 0-63 0-66-5-49-45-87-95-87-50 0-91 38-95 87 0 3 0 67 0 67l0 47 190 0 0-48z m53-15c-5-21-17-36-36-44 0 6 0 43 0 73l37 0c1-7 1-17-1-29z"/>
<glyph unicode="&#110;" d="M317 478c-125 34-253-40-286-165-34-124 40-252 165-286 64-17 129-5 181 26l0 1c7 3 11 11 11 19 0 12-10 22-22 22-4 0-8-1-11-3l0 1c-42-27-95-36-148-22-100 27-160 130-133 231 27 100 130 160 231 133 101-27 160-130 133-231-4-18-12-35-21-50l0 0c-2-3-3-7-3-11 0-12 10-22 23-22 8 0 15 4 19 11l0 0c11 18 20 39 26 60 33 125-41 253-165 286z m-23-237c11 7 42 22 42 61 0 39-33 66-60 71-28 6-58 2-79-21-19-21-23-37-23-73l43 0 0 8c0 20 2 40 30 45 15 3 29-1 37-9 10-10 10-31-6-41l-23-17c-14-9-19-18-19-33l0-49 42 0 0 33c0 9 4 17 16 25z m-37-75c-12 0-22-9-22-22 0-12 10-21 22-21 12 0 22 9 22 21 0 13-10 22-22 22z"/>
<glyph unicode="&#111;" d="M182 441l-105 0c-23 0-43-20-43-45l0-278c0-25 20-45 43-45l127 0-11 6c21-30 44-49 68-49 25 0 47 19 68 49l-11-6 115 0c23 0 42 20 42 45l0 155c0 9-6 15-14 15-8 0-14-6-14-15l0-155c0-8-6-15-14-15l-122 0-5-6c-16-23-33-38-45-38-12 0-29 15-45 38l-4 6-135 0c-8 0-14 7-14 15l0 278c0 8 6 15 14 15l105 0c8 0 14 7 14 15 0 8-6 15-14 15z m-21-190l-18-63c-2-7 3-15 10-17 8-2 16 2 18 10l17 63c2 7-2 15-10 17-7 2-15-2-17-10z m1-81l74 13c7 2 13 9 11 17-1 8-9 13-16 12l-74-14c-8-1-13-8-12-16 1-8 9-13 17-12z m25 70l218 218c3 3 8 3 11 0l23-23c3-3 3-8 0-11l-214-214c-5-6-5-15 0-20 6-6 15-6 20 0l214 214c14 14 14 37 0 51l-23 23c-14 14-37 14-51 0l-218-218c-6-6-6-15 0-20 5-6 14-6 20 0z"/>
<glyph unicode="&#114;" d="M201 240l-98 0 0-28 98 0z m-98-98l98 0 0 28-98 0z m265 112c-61 0-112-50-112-112 0-61 51-111 112-111 62 0 112 50 112 111 0 62-50 112-112 112z m0-195c-46 0-84 37-84 83 0 47 38 84 84 84 46 0 84-37 84-84 0-46-38-83-84-83z m-293 42c-4 0-7 1-10 4-3 2-4 6-4 10l0 167 323 0c9-1 18-4 26-7l0 105c0 11-4 22-12 30-8 7-19 12-30 12l-28 0 0 56-28 0 0-56-167 0 0 56-28 0 0-56-42 0c-11 0-22-5-30-12-8-8-12-19-12-30l0-265c0-12 4-22 12-30 8-8 19-12 30-12l177 0c-7 8-12 17-16 28z m-14 251l0 28c0 4 1 7 4 10 3 2 6 4 10 4l42 0 0-42 28 0 0 42 167 0 0-42 28 0 0 42 28 0c4 0 7-2 10-4 3-3 4-6 4-10l0-70-321 0z m321-154l-28 0 0-69 70 0 0 27-42 0z"/>
<glyph unicode="&#109;" d="M116 209c4-4 10-6 16-6 1 0 2 0 3 0 7 1 13 5 18 10l53 71 53-45c5-5 12-7 19-6 7 1 13 4 18 10l121 156c1 1 2 3 2 4l22 25c11 14 6 22-11 20l-101-17c-17-2-21-14-8-26l20-19-70-90-53 45c-5 4-12 7-19 6-7-1-14-5-18-10l-53-71-26 21c-11 9-27 7-36-4-9-11-8-27 3-36z m302 118l-118-144c-5-7-19 3-26 8l-47 42c-7 6-17-4-22-11l-55-67c-6-7-16 1-22 6l-48 39c-9 8-17-1-17-17l0-103c0-9 7-16 16-16l357 0c9 0 16 7 16 16 0 0 0 222 0 238 0 23-18 27-34 9z"/>
<glyph unicode="&#112;" d="M475 342c0 15-2 29-6 41-4 11-9 21-15 28-7 7-15 12-24 17-9 4-18 7-27 9-8 1-18 2-28 2-9 0-20-3-32-7-11-5-22-11-31-19-10-7-18-14-25-20-7-7-12-13-17-18-3-4-8-6-14-6-6 0-11 2-14 6-5 5-10 11-17 18-7 6-15 13-25 20-9 8-20 14-31 19-12 4-23 7-32 7-10 0-20-1-28-2-9-2-18-5-27-9-9-5-17-10-24-17-6-7-11-17-15-28-4-12-6-26-6-41 0-32 17-66 53-102l166-160 166 160c36 36 53 70 53 102z m37 0c0-42-22-85-65-129l-178-171c-4-4-8-5-13-5-5 0-9 1-13 5l-178 172c-2 1-4 4-8 7-3 4-8 10-16 19-7 9-13 18-19 28-6 9-11 21-15 34-5 14-7 27-7 40 0 42 12 74 36 98 24 24 58 35 101 35 11 0 23-2 36-6 12-4 23-9 34-16 11-7 20-14 27-20 8-6 15-12 22-19 7 7 14 13 22 19 7 6 16 13 27 20 11 7 22 12 34 16 13 4 25 6 36 6 43 0 77-11 101-35 24-24 36-56 36-98z"/>
<glyph unicode="&#115;" d="M366 174l0-19c0-2-1-4-3-6-2-2-4-3-6-3l-202 0c-2 0-4 1-6 3-2 2-3 4-3 6l0 19c0 2 1 5 3 6 2 2 4 3 6 3l202 0c2 0 4-1 6-3 2-1 3-4 3-6z m0 73l0-18c0-3-1-5-3-7-2-2-4-3-6-3l-202 0c-2 0-4 1-6 3-2 2-3 4-3 7l0 18c0 3 1 5 3 6 2 2 4 3 6 3l202 0c2 0 4-1 6-3 2-1 3-3 3-6z m-256-174l292 0 0 220-119 0c-7 0-14 2-19 8-5 5-8 11-8 19l0 119-146 0z m183 256l107 0c-2 6-4 10-6 12l-90 89c-2 3-6 5-11 7z m146-9l0-256c0-8-3-14-8-19-5-6-12-8-20-8l-310 0c-8 0-15 2-20 8-5 5-8 11-8 19l0 384c0 8 3 14 8 19 5 6 12 8 20 8l182 0c8 0 16-1 26-5 9-4 16-9 21-14l89-89c6-5 10-13 14-22 4-9 6-17 6-25z"/>
<glyph unicode="&#98;" d="M335 238c0-3-1-5-3-7l-133-133c-2-2-5-3-7-3-2 0-5 1-7 3l-14 14c-2 2-3 4-3 7 0 2 1 5 3 6l112 113-112 112c-2 2-3 4-3 7 0 2 1 4 3 6l14 14c2 2 5 3 7 3 2 0 5-1 7-3l133-133c2-2 3-4 3-6z"/>
<glyph unicode="&#100;" d="M344 357c0-3-1-5-3-7l-112-112 112-113c2-1 3-4 3-6 0-3-1-5-3-7l-14-14c-2-2-5-3-7-3-2 0-5 1-7 3l-133 133c-2 2-3 4-3 7 0 2 1 4 3 6l133 133c2 2 5 3 7 3 2 0 5-1 7-3l14-14c2-2 3-4 3-6z"/>
<glyph unicode="&#102;" d="M464 332l-2 0c-8 0-15-7-15-15l0-69c0-1 0-1 0-1l0-114c0-13-11-24-24-24l-334 0c-13 0-24 11-24 24l0 246c0 13 11 24 24 24l321 0-145-133-112 95c-7 6-17 5-23-2l-7-8c-6-6-5-17 2-23l127-107 1-1c3-4 7-5 11-6 5 0 10 2 14 6l2 2 167 152 33 32c0 16-13 29-30 29l-388 0c-17 0-30-13-30-29l0-308c0-16 13-29 30-29l388 0c17 0 30 13 30 29l0 215c0 8-7 15-16 15z"/>
<glyph unicode="&#104;" d="M405 320l0 64c0 43-42 107-149 107-107 0-149-64-149-107l0-64-43 0 0-235c0-35 29-64 64-64l256 0c35 0 64 29 64 64l0 235z m-256 85c0 0 22 43 107 43 85 0 107-43 107-43l0-85-214 0z m256-320c0-11-9-21-21-21l-256 0c-12 0-21 10-21 21l0 192 298 0z m-170 70l0-48 42 0 0 48c13 8 22 21 22 37 0 24-19 43-43 43-24 0-43-19-43-43 0-16 9-29 22-37z"/>
<glyph unicode="&#107;" d="M249 339c14 0 22 9 22 22 0 14-8 22-22 22-13 0-26-8-26-22 0-13 13-22 26-22z m-122 44c-14 0-27-8-27-22 0-13 13-22 27-22 13 0 21 9 21 22 0 14-8 22-21 22z m385-184c0 69-64 129-143 135 0 1 0 1-1 2-15 74-95 130-184 130-102 0-184-71-184-157 0-47 24-89 69-122l-16-47c-1-3 0-6 2-9 2-1 4-2 6-2 1 0 2 1 3 1l59 30 7-2c19-3 34-7 54-7 5 0 11 1 17 1 2 0 4 1 5 3 21-53 80-91 149-91 18 0 35 4 51 8l46-25c1-1 2-1 4-1 2 0 3 1 5 2 2 2 3 5 2 8l-11 39c39 31 60 67 60 104z m-313-31c-5 0-10-1-15-1-18 0-33 3-50 7l-10 2c-2 0-4 0-5-1l-45-22 12 35c1 3 0 7-3 9-45 31-67 68-67 112 0 78 75 141 168 141 81 0 154-50 168-116-85-1-154-61-154-135 0-11 1-21 4-31-1 0-2 0-3 0z m239-64c-3-2-4-5-3-8l7-26-31 17c-1 1-2 1-3 1-1 0-2 0-2 0-17-4-34-8-51-8-78 0-141 53-141 119 0 66 63 119 141 119 76 0 141-54 141-119 0-33-21-67-58-95z m-132 152c-8 0-17-9-17-18 0-8 9-17 17-17 14 0 22 9 22 17 0 9-8 18-22 18z m97 0c-9 0-17-9-17-18 0-8 8-17 17-17 13 0 22 9 22 17 0 9-9 18-22 18z"/>
<glyph unicode="&#113;" d="M170 218c-42 0-76 33-76 75 0 41 34 75 76 75 41 0 75-34 75-75 0-42-34-75-75-75z m0 132c-32 0-60-25-60-59 0-32 26-59 60-59 32 0 59 26 59 59 0 34-26 59-59 59z m96-252c-5 0-8 3-8 8 0 46-37 83-84 83-46 0-83-37-83-83 0-5-3-8-8-8-5 0-8 3-8 8 0 54 45 99 99 99 55 0 100-45 100-99 0-5-5-8-8-8z m187-37c-5 0-8 3-8 8 0 5 3 8 8 8 22 0 41 17 41 41l0 268c0 22-17 41-41 41l-392 0c-23 0-42-17-42-41l0-269c0-23 18-42 42-42l229 0c4 0 8-3 8-8 0-5-4-8-8-8l-229 0c-32 0-58 26-58 58l0 269c0 32 26 57 58 57l392 0c32 0 57-25 57-57l0-269c0-31-25-56-57-56z m-53 249l-77 0c-5 0-8 4-8 8 0 5 3 8 8 8l77 0c5 0 8-3 8-8 0-4-3-8-8-8z m45-92l-122 0c-5 0-8 3-8 8 0 4 3 8 8 8l122 0c5 0 8-4 8-8 0-5-5-8-8-8z m0-56l-122 0c-5 0-8 3-8 8 0 4 3 8 8 8l122 0c5 0 8-4 8-8 0-5-5-8-8-8z"/>
<glyph unicode="&#116;" d="M138 512c19 0 35-3 41-6 16-4 26-7 45-148l3-12-51-39c19-67 86-118 115-137l45 38 13-3c0 0 64-23 96-29 19-3 32-13 41-26 10-16 10-35 4-60-16-55-64-87-125-87-23 0-48 3-74 13-163 58-272 272-275 352 6 131 86 144 122 144z m38-29c-10 0-128 42-138-115 4-74 109-278 260-333 83-32 150-3 169 58 10 35-3 51-29 57-35 7-102 29-102 29l-48-41c0 0-122 70-144 176l54 38c4 3-12 128-22 131z"/>
<glyph unicode="&#103;" d="M391 304c-5 0-9-4-9-9l0-50c0-4 4-8 9-8 5 0 9 4 9 8l0 50c0 5-4 9-9 9z m0-109c-5 0-9-4-9-8l0-50c0-5 4-9 9-9 5 0 9 4 9 9l0 50c0 4-4 8-9 8z m-227 191l-57 0c-5 0-9-4-9-9 0-5 4-9 9-9l57 0c5 0 9 4 9 9 0 5-4 9-9 9z m0-103l-57 0c-5 0-9-4-9-9 0-4 4-8 9-8l57 0c5 0 9 4 9 8 0 5-4 9-9 9z m0-103l-57 0c-5 0-9-4-9-8 0-5 4-9 9-9l57 0c5 0 9 4 9 9 0 4-4 8-9 8z m105 206l-57 0c-5 0-8-4-8-9 0-5 3-9 8-9l57 0c5 0 9 4 9 9 0 5-4 9-9 9z m0-103l-57 0c-5 0-8-4-8-9 0-4 3-8 8-8l57 0c5 0 9 4 9 8 0 5-4 9-9 9z m0-103l-57 0c-5 0-8-4-8-8 0-5 3-9 8-9l57 0c5 0 9 4 9 9 0 4-4 8-9 8z m234-127l-30 0 0 322-138 0 0 101-295 0 0-423-31 0c-5 0-9-4-9-8 0-5 4-9 9-9l494 0c5 0 9 4 9 9 0 4-4 8-9 8z m-446 0l0 406 261 0 0-406z m278 0l0 305 121 0 0-305z"/>
</font>
</defs>
</svg>
